<?xml version="1.0" encoding="UTF-8"?>
<svg width="325px" height="184px" viewBox="0 0 325 184" version="1.1" xmlns="http://www.w3.org/2000/svg" xmlns:xlink="http://www.w3.org/1999/xlink">
    <title>Group 2</title>
    <g id="Page-1" stroke="none" stroke-width="1" fill="none" fill-rule="evenodd">
        <g id="Group-2" transform="translate(0.489671, 0.852389)">
            <g id="Group" fill="#BA333D">
                <path d="M51.5103292,1.06061103 C59.7413292,-0.843388972 74.5683292,-0.106388972 83.5103292,2.65061103 C103.244329,8.73461103 118.536329,23.793611 125.657329,44.157611 C128.112329,51.175611 128.453329,53.607611 128.467329,64.147611 C128.478329,72.921611 127.993329,77.760611 126.663329,82.147611 C124.401329,89.608611 119.744329,98.932611 115.781329,103.936611 C114.125329,106.028611 112.936329,107.892611 113.139329,108.078611 C114.821329,109.614611 122.229329,112.802611 125.260329,113.294611 L125.260329,113.294611 L129.010329,113.903611 L129.010329,152.934611 L122.197329,152.301611 C109.137329,151.087611 95.9453292,144.987611 85.3163292,135.248611 L85.3163292,135.248611 L78.6573292,129.147611 L65.5843292,129.043611 C56.1673292,128.968611 50.9723292,128.452611 47.0103292,127.197611 C29.9503292,121.792611 14.6303292,108.900611 7.14432924,93.647611 C-2.29567076,74.413611 -2.38067076,55.237611 6.88932924,36.147611 C15.8193292,17.758611 31.0293292,5.79761103 51.5103292,1.06061103 Z M65.0103292,42.147611 C51.4793529,42.147611 40.5103292,53.1166347 40.5103292,66.647611 C40.5103292,80.1785874 51.4793529,91.147611 65.0103292,91.147611 C78.5413056,91.147611 89.5103292,80.1785874 89.5103292,66.647611 C89.5103292,53.1166347 78.5413056,42.147611 65.0103292,42.147611 Z" id="Combined-Shape"></path>
                <polyline id="Path" points="141.010329 20.147611 141.010329 38.647611 199.010329 38.647611 257.010329 38.647611 257.010329 20.147611 257.010329 1.64761103 199.010329 1.64761103 141.010329 1.64761103 141.010329 20.147611"></polyline>
                <path d="M141.010329,64.987611 C141.010329,86.424611 145.860329,99.473611 158.589329,112.280611 C169.974329,123.734611 182.625329,128.818611 199.659329,128.78379 C220.701329,128.740611 239.656329,117.258611 249.410329,98.647611 C254.747329,88.465611 256.087329,82.651611 256.726329,66.897611 L257.304329,52.647611 L237.407329,52.651611 L217.510329,52.656611 L217.474329,64.401611 C217.435329,77.574611 216.580329,80.183611 210.582329,85.449611 C201.956329,93.024611 187.209329,89.887611 182.131329,79.397611 C180.357329,75.733611 180.010329,73.185611 180.010329,63.831611 L180.010329,52.647611 L160.510329,52.647611 L141.010329,52.647611 L141.010329,64.987611" id="Path"></path>
            </g>
            <path d="M153.210329,176.147611 C155.093663,176.147611 156.539496,175.722611 157.547829,174.872611 C158.556163,174.022611 159.060329,172.839278 159.060329,171.322611 C159.060329,170.289278 158.747829,169.380944 158.122829,168.597611 C157.497829,167.814278 156.651996,167.297611 155.585329,167.047611 C156.501996,166.830944 157.243663,166.368444 157.810329,165.660111 C158.376996,164.951778 158.660329,164.064278 158.660329,162.997611 C158.660329,161.547611 158.168663,160.430944 157.185329,159.647611 C156.201996,158.864278 154.810329,158.472611 153.010329,158.472611 L153.010329,158.472611 L144.985329,158.472611 L144.985329,176.147611 L153.210329,176.147611 Z M152.060329,165.697611 L149.260329,165.697611 L149.260329,161.897611 L152.010329,161.897611 C153.526996,161.897611 154.285329,162.530944 154.285329,163.797611 C154.285329,165.064278 153.543663,165.697611 152.060329,165.697611 L152.060329,165.697611 Z M152.310329,172.672611 L149.260329,172.672611 L149.260329,168.697611 L152.285329,168.697611 C153.051996,168.697611 153.643663,168.876778 154.060329,169.235111 C154.476996,169.593444 154.685329,170.089278 154.685329,170.722611 C154.685329,172.022611 153.893663,172.672611 152.310329,172.672611 L152.310329,172.672611 Z M167.610329,176.322611 C168.776996,176.322611 169.835329,176.101778 170.785329,175.660111 C171.735329,175.218444 172.518663,174.610111 173.135329,173.835111 C173.751996,173.060111 174.151996,172.180944 174.335329,171.197611 L174.335329,171.197611 L169.810329,171.197611 C169.676996,171.697611 169.401996,172.105944 168.985329,172.422611 C168.568663,172.739278 168.043663,172.897611 167.410329,172.897611 C166.660329,172.897611 166.043663,172.668444 165.560329,172.210111 C165.076996,171.751778 164.810329,170.997611 164.760329,169.947611 L164.760329,169.947611 L174.435329,169.947611 C174.518663,169.530944 174.560329,169.147611 174.560329,168.797611 C174.560329,167.464278 174.272829,166.285111 173.697829,165.260111 C173.122829,164.235111 172.310329,163.439278 171.260329,162.872611 C170.210329,162.305944 168.993663,162.022611 167.610329,162.022611 C166.243663,162.022611 165.026996,162.310111 163.960329,162.885111 C162.893663,163.460111 162.064496,164.285111 161.472829,165.360111 C160.881163,166.435111 160.585329,167.705944 160.585329,169.172611 C160.585329,170.622611 160.885329,171.889278 161.485329,172.972611 C162.085329,174.055944 162.914496,174.885111 163.972829,175.460111 C165.031163,176.035111 166.243663,176.322611 167.610329,176.322611 Z M170.235329,168.147611 L164.785329,168.147611 C164.851996,167.247611 165.143663,166.564278 165.660329,166.097611 C166.176996,165.630944 166.826996,165.397611 167.610329,165.397611 C168.360329,165.397611 168.989496,165.626778 169.497829,166.085111 C170.006163,166.543444 170.251996,167.230944 170.235329,168.147611 L170.235329,168.147611 Z M182.510329,182.797611 L191.210329,162.197611 L186.485329,162.197611 L183.360329,170.747611 L180.010329,162.197611 L175.235329,162.197611 L181.085329,175.622611 L177.810329,182.797611 L182.510329,182.797611 Z M199.160329,176.322611 C200.543663,176.322611 201.781163,176.035111 202.872829,175.460111 C203.964496,174.885111 204.822829,174.055944 205.447829,172.972611 C206.072829,171.889278 206.385329,170.622611 206.385329,169.172611 C206.385329,167.722611 206.072829,166.455944 205.447829,165.372611 C204.822829,164.289278 203.964496,163.460111 202.872829,162.885111 C201.781163,162.310111 200.543663,162.022611 199.160329,162.022611 C197.776996,162.022611 196.535329,162.310111 195.435329,162.885111 C194.335329,163.460111 193.472829,164.289278 192.847829,165.372611 C192.222829,166.455944 191.910329,167.722611 191.910329,169.172611 C191.910329,170.622611 192.222829,171.889278 192.847829,172.972611 C193.472829,174.055944 194.335329,174.885111 195.435329,175.460111 C196.535329,176.035111 197.776996,176.322611 199.160329,176.322611 Z M199.160329,172.597611 C198.343663,172.597611 197.656163,172.305944 197.097829,171.722611 C196.539496,171.139278 196.260329,170.289278 196.260329,169.172611 C196.260329,168.055944 196.539496,167.201778 197.097829,166.610111 C197.656163,166.018444 198.343663,165.722611 199.160329,165.722611 C199.976996,165.722611 200.660329,166.018444 201.210329,166.610111 C201.760329,167.201778 202.035329,168.055944 202.035329,169.172611 C202.035329,170.289278 201.760329,171.139278 201.210329,171.722611 C200.660329,172.305944 199.976996,172.597611 199.160329,172.597611 Z M212.885329,176.147611 L212.885329,168.747611 C212.885329,167.730944 213.139496,166.947611 213.647829,166.397611 C214.156163,165.847611 214.843663,165.572611 215.710329,165.572611 C216.526996,165.572611 217.181163,165.835111 217.672829,166.360111 C218.164496,166.885111 218.410329,167.614278 218.410329,168.547611 L218.410329,168.547611 L218.410329,176.147611 L222.685329,176.147611 L222.685329,168.047611 C222.685329,166.180944 222.214496,164.714278 221.272829,163.647611 C220.331163,162.580944 219.060329,162.047611 217.460329,162.047611 C216.393663,162.047611 215.464496,162.289278 214.672829,162.772611 C213.881163,163.255944 213.285329,163.914278 212.885329,164.747611 L212.885329,164.747611 L212.885329,162.197611 L208.610329,162.197611 L208.610329,176.147611 L212.885329,176.147611 Z M230.810329,176.322611 C231.876996,176.322611 232.793663,176.080944 233.560329,175.597611 C234.326996,175.114278 234.885329,174.455944 235.235329,173.622611 L235.235329,173.622611 L235.235329,176.147611 L239.510329,176.147611 L239.510329,157.647611 L235.235329,157.647611 L235.235329,164.722611 C234.885329,163.889278 234.326996,163.230944 233.560329,162.747611 C232.793663,162.264278 231.876996,162.022611 230.810329,162.022611 C229.660329,162.022611 228.631163,162.310111 227.722829,162.885111 C226.814496,163.460111 226.097829,164.285111 225.572829,165.360111 C225.047829,166.435111 224.785329,167.705944 224.785329,169.172611 C224.785329,170.622611 225.047829,171.889278 225.572829,172.972611 C226.097829,174.055944 226.814496,174.885111 227.722829,175.460111 C228.631163,176.035111 229.660329,176.322611 230.810329,176.322611 Z M232.185329,172.572611 C231.268663,172.572611 230.531163,172.272611 229.972829,171.672611 C229.414496,171.072611 229.135329,170.239278 229.135329,169.172611 C229.135329,168.105944 229.414496,167.272611 229.972829,166.672611 C230.531163,166.072611 231.268663,165.772611 232.185329,165.772611 C233.085329,165.772611 233.822829,166.076778 234.397829,166.685111 C234.972829,167.293444 235.260329,168.122611 235.260329,169.172611 C235.260329,170.205944 234.972829,171.030944 234.397829,171.647611 C233.822829,172.264278 233.085329,172.572611 232.185329,172.572611 Z M253.985329,176.322611 C255.301996,176.322611 256.422829,176.089278 257.347829,175.622611 C258.272829,175.155944 258.972829,174.530944 259.447829,173.747611 C259.922829,172.964278 260.160329,172.105944 260.160329,171.172611 C260.160329,170.022611 259.901996,169.089278 259.385329,168.372611 C258.868663,167.655944 258.251996,167.110111 257.535329,166.735111 C256.818663,166.360111 255.893663,165.980944 254.760329,165.597611 C253.976996,165.314278 253.376996,165.080944 252.960329,164.897611 C252.543663,164.714278 252.197829,164.476778 251.922829,164.185111 C251.647829,163.893444 251.510329,163.539278 251.510329,163.122611 C251.510329,162.605944 251.664496,162.214278 251.972829,161.947611 C252.281163,161.680944 252.685329,161.547611 253.185329,161.547611 C253.768663,161.547611 254.231163,161.718444 254.572829,162.060111 C254.914496,162.401778 255.126996,162.864278 255.210329,163.447611 L255.210329,163.447611 L259.835329,163.447611 C259.685329,161.814278 259.031163,160.530944 257.872829,159.597611 C256.714496,158.664278 255.151996,158.197611 253.185329,158.197611 C251.968663,158.197611 250.889496,158.401778 249.947829,158.810111 C249.006163,159.218444 248.268663,159.805944 247.735329,160.572611 C247.201996,161.339278 246.935329,162.247611 246.935329,163.297611 C246.935329,164.430944 247.189496,165.351778 247.697829,166.060111 C248.206163,166.768444 248.814496,167.301778 249.522829,167.660111 C250.231163,168.018444 251.143663,168.389278 252.260329,168.772611 C253.026996,169.039278 253.626996,169.268444 254.060329,169.460111 C254.493663,169.651778 254.856163,169.897611 255.147829,170.197611 C255.439496,170.497611 255.585329,170.872611 255.585329,171.322611 C255.585329,171.822611 255.426996,172.222611 255.110329,172.522611 C254.793663,172.822611 254.360329,172.972611 253.810329,172.972611 C253.176996,172.972611 252.656163,172.780944 252.247829,172.397611 C251.839496,172.014278 251.601996,171.489278 251.535329,170.822611 L251.535329,170.822611 L246.985329,170.822611 C247.101996,172.555944 247.801996,173.905944 249.085329,174.872611 C250.368663,175.839278 252.001996,176.322611 253.985329,176.322611 Z M270.435329,176.147611 L270.435329,161.872611 L275.235329,161.872611 L275.235329,158.472611 L261.385329,158.472611 L261.385329,161.872611 L266.135329,161.872611 L266.135329,176.147611 L270.435329,176.147611 Z M280.260329,176.147611 L281.360329,172.922611 L287.985329,172.922611 L289.085329,176.147611 L293.635329,176.147611 L287.160329,158.597611 L282.235329,158.597611 L275.760329,176.147611 L280.260329,176.147611 Z M286.885329,169.672611 L282.460329,169.672611 L284.685329,163.172611 L286.885329,169.672611 Z M299.560329,176.147611 L299.560329,169.472611 L300.535329,169.472611 L304.360329,176.147611 L309.085329,176.147611 L304.885329,169.197611 C306.235329,168.864278 307.264496,168.247611 307.972829,167.347611 C308.681163,166.447611 309.035329,165.355944 309.035329,164.072611 C309.035329,162.989278 308.793663,162.026778 308.310329,161.185111 C307.826996,160.343444 307.101996,159.680944 306.135329,159.197611 C305.168663,158.714278 303.985329,158.472611 302.585329,158.472611 L302.585329,158.472611 L295.285329,158.472611 L295.285329,176.147611 L299.560329,176.147611 Z M302.210329,166.547611 L299.560329,166.547611 L299.560329,162.072611 L302.210329,162.072611 C303.043663,162.072611 303.664496,162.272611 304.072829,162.672611 C304.481163,163.072611 304.685329,163.622611 304.685329,164.322611 C304.685329,165.055944 304.485329,165.610111 304.085329,165.985111 C303.685329,166.360111 303.060329,166.547611 302.210329,166.547611 L302.210329,166.547611 Z M317.710329,176.322611 C319.026996,176.322611 320.147829,176.089278 321.072829,175.622611 C321.997829,175.155944 322.697829,174.530944 323.172829,173.747611 C323.647829,172.964278 323.885329,172.105944 323.885329,171.172611 C323.885329,170.022611 323.626996,169.089278 323.110329,168.372611 C322.593663,167.655944 321.976996,167.110111 321.260329,166.735111 C320.543663,166.360111 319.618663,165.980944 318.485329,165.597611 C317.701996,165.314278 317.101996,165.080944 316.685329,164.897611 C316.268663,164.714278 315.922829,164.476778 315.647829,164.185111 C315.372829,163.893444 315.235329,163.539278 315.235329,163.122611 C315.235329,162.605944 315.389496,162.214278 315.697829,161.947611 C316.006163,161.680944 316.410329,161.547611 316.910329,161.547611 C317.493663,161.547611 317.956163,161.718444 318.297829,162.060111 C318.639496,162.401778 318.851996,162.864278 318.935329,163.447611 L318.935329,163.447611 L323.560329,163.447611 C323.410329,161.814278 322.756163,160.530944 321.597829,159.597611 C320.439496,158.664278 318.876996,158.197611 316.910329,158.197611 C315.693663,158.197611 314.614496,158.401778 313.672829,158.810111 C312.731163,159.218444 311.993663,159.805944 311.460329,160.572611 C310.926996,161.339278 310.660329,162.247611 310.660329,163.297611 C310.660329,164.430944 310.914496,165.351778 311.422829,166.060111 C311.931163,166.768444 312.539496,167.301778 313.247829,167.660111 C313.956163,168.018444 314.868663,168.389278 315.985329,168.772611 C316.751996,169.039278 317.351996,169.268444 317.785329,169.460111 C318.218663,169.651778 318.581163,169.897611 318.872829,170.197611 C319.164496,170.497611 319.310329,170.872611 319.310329,171.322611 C319.310329,171.822611 319.151996,172.222611 318.835329,172.522611 C318.518663,172.822611 318.085329,172.972611 317.535329,172.972611 C316.901996,172.972611 316.381163,172.780944 315.972829,172.397611 C315.564496,172.014278 315.326996,171.489278 315.260329,170.822611 L315.260329,170.822611 L310.710329,170.822611 C310.826996,172.555944 311.526996,173.905944 312.810329,174.872611 C314.093663,175.839278 315.726996,176.322611 317.710329,176.322611 Z" id="BeyondSTARS" fill="#70D5E0" fill-rule="nonzero"></path>
        </g>
    </g>
</svg>